<svg xmlns="http://www.w3.org/2000/svg" xmlns:xlink="http://www.w3.org/1999/xlink" version="1.1" id="Layer_1" x="0px" y="0px" width="100px" height="100px" viewBox="0 0 100 100" enable-background="new 0 0 100 100" xml:space="preserve">
<path d="M72.427,47.878l21.541-21.542c0.71-0.709,0.71-1.861,0-2.572L80.464,10.261c-0.71-0.71-1.86-0.71-2.571,0L56.352,31.803  c-0.711,0.709-0.711,1.861,0,2.571l13.504,13.504C70.564,48.588,71.717,48.588,72.427,47.878z M60.204,32.428l18.313-18.313  c0.36-0.361,0.946-0.361,1.309,0c0.361,0.362,0.361,0.948,0,1.311L61.512,33.737c-0.361,0.362-0.945,0.362-1.308,0  C59.842,33.376,59.842,32.789,60.204,32.428z M63.633,35.857l18.314-18.313c0.361-0.361,0.947-0.361,1.309,0  c0.362,0.361,0.362,0.948,0,1.31L64.941,37.167c-0.361,0.361-0.947,0.361-1.31,0S63.271,36.219,63.633,35.857z M67.062,39.287  l18.312-18.314c0.361-0.362,0.947-0.362,1.309,0c0.363,0.361,0.363,0.947,0,1.309L68.371,40.596c-0.361,0.361-0.947,0.361-1.309,0  C66.7,40.235,66.701,39.648,67.062,39.287z M70.491,42.716l18.315-18.314c0.359-0.362,0.945-0.362,1.307,0  c0.363,0.361,0.363,0.948,0,1.31L71.801,44.026c-0.361,0.36-0.947,0.36-1.31,0C70.13,43.665,70.13,43.078,70.491,42.716z"/>
<path d="M36.212,73.889c1.62-1.621,1.62-4.25,0-5.871c-1.621-1.621-4.249-1.621-5.87,0L13.429,84.93l5.87,5.87L36.212,73.889z"/>
<rect x="28.766" y="54.328" transform="matrix(0.7071 -0.7071 0.7071 0.7071 -24.6569 50.8426)" width="40.556" height="1.713"/>
<path d="M28.277,41.061c-1.5,0-2.911-0.584-3.971-1.646L3.15,18.259l1.456-1.457l21.157,21.157c1.344,1.345,3.686,1.344,5.03,0  c1.386-1.387,1.386-3.642,0-5.029L9.636,11.773l1.456-1.456l21.157,21.157c2.189,2.189,2.189,5.751,0,7.941  C31.188,40.477,29.778,41.061,28.277,41.061z"/>
<path d="M66.839,68.018c-1.621-1.621-4.251-1.621-5.872,0c-1.619,1.621-1.619,4.248,0,5.869L77.881,90.8l5.87-5.87L66.839,68.018z"/>
<rect x="24.444" y="52.915" transform="matrix(-0.7071 -0.7071 0.7071 -0.7071 41.739 124.8292)" width="44.557" height="1.711"/>
</svg>